<?xml version="1.0" encoding="UTF-8" standalone="no"?>
<!-- Generator: Adobe Illustrator 13.0.0, SVG Export Plug-In . SVG Version: 6.00 Build 14948)  -->
<svg
   xmlns:dc="http://purl.org/dc/elements/1.1/"
   xmlns:cc="http://web.resource.org/cc/"
   xmlns:rdf="http://www.w3.org/1999/02/22-rdf-syntax-ns#"
   xmlns:svg="http://www.w3.org/2000/svg"
   xmlns="http://www.w3.org/2000/svg"
   xmlns:sodipodi="http://sodipodi.sourceforge.net/DTD/sodipodi-0.dtd"
   xmlns:inkscape="http://www.inkscape.org/namespaces/inkscape"
   version="1.0"
   x="0px"
   y="0px"
   width="1920"
   height="1200"
   viewBox="0 0 1280 1024"
   enable-background="new 0 0 1280 1024"
   xml:space="preserve"
   id="svg2296"
   sodipodi:version="0.32"
   inkscape:version="0.45.1"
   sodipodi:docname="gobofire.svg"
   sodipodi:docbase="/home/vazub/Desktop"
   inkscape:output_extension="org.inkscape.output.svg.inkscape"><metadata
   id="metadata2365"><rdf:RDF><cc:Work
       rdf:about=""><dc:format>image/svg+xml</dc:format><dc:type
         rdf:resource="http://purl.org/dc/dcmitype/StillImage" /></cc:Work></rdf:RDF></metadata><defs
   id="defs2363" /><sodipodi:namedview
   inkscape:window-height="627"
   inkscape:window-width="910"
   inkscape:pageshadow="2"
   inkscape:pageopacity="0.0"
   guidetolerance="10.0"
   gridtolerance="10.0"
   objecttolerance="10.0"
   borderopacity="1.0"
   bordercolor="#666666"
   pagecolor="#ffffff"
   id="base"
   width="1920px"
   height="1200px"
   inkscape:zoom="0.39746094"
   inkscape:cx="640"
   inkscape:cy="512"
   inkscape:window-x="521"
   inkscape:window-y="223"
   inkscape:current-layer="svg2296" />
<g
   id="background"
   transform="matrix(1.28,0,0,1,-178.56,0.5)">
	<linearGradient
   id="SVGID_1_"
   gradientUnits="userSpaceOnUse"
   x1="639.49951"
   y1="-0.5"
   x2="639.49951"
   y2="1023.5005">
		<stop
   offset="0"
   style="stop-color:#FFEBCC"
   id="stop2300" />
		<stop
   offset="0.0757"
   style="stop-color:#FFDAAF"
   id="stop2302" />
		<stop
   offset="0.1844"
   style="stop-color:#FFC58D"
   id="stop2304" />
		<stop
   offset="0.2871"
   style="stop-color:#FFB673"
   id="stop2306" />
		<stop
   offset="0.3805"
   style="stop-color:#FFAD64"
   id="stop2308" />
		<stop
   offset="0.456"
   style="stop-color:#FFAA5F"
   id="stop2310" />
		<stop
   offset="0.6388"
   style="stop-color:#F97F49"
   id="stop2312" />
		<stop
   offset="0.8813"
   style="stop-color:#F34A2E"
   id="stop2314" />
		<stop
   offset="1"
   style="stop-color:#F03624"
   id="stop2316" />
	</linearGradient>
	<rect
   x="-0.5"
   y="-0.5"
   width="1280"
   height="1024"
   id="rect2318"
   style="fill:url(#SVGID_1_)" />
</g>
<g
   id="logo"
   transform="translate(0.500044,0.5002014)">
	<g
   id="g2321">
		<g
   id="g112_2_">
			<g
   id="g2324">
				<g
   id="g2326">
					<path
   d="M 519.335,528.26 C 514.54,527.47 512.468,525.851 511.199,526.947 C 510.565,527.493 509.845,537.938 512.249,537.885 C 521.876,537.665 529.293,531.345 529.049,530.315 C 528.53,528.116 525.198,529.219 519.335,528.26 z "
   id="path2328"
   style="fill:#ffffff" />
					<path
   d="M 545.146,565.223 C 540.771,565.134 527.913,565.046 511.947,561.176 C 503.918,559.23 515.093,570.426 534.515,573.576 C 540.389,574.528 535.612,569.509 545.146,569.902 C 548.689,570.048 547.773,565.275 545.146,565.223 z "
   id="path2330"
   style="fill:#ffffff" />
					<path
   d="M 574.451,490.9 C 569.827,489.701 560.286,492.968 556.914,498.03 C 553.344,503.388 570.607,518.013 559.357,509.175 C 554.459,505.326 541.248,493.867 541.248,479.17 C 541.248,466.915 545.906,459.658 551.395,459.658 C 558.043,459.658 561.179,466.667 564.17,475.231 C 564.938,477.432 572.653,478.167 572.23,476.655 C 565.18,451.445 555.734,448.427 541.211,449.479 C 519.289,451.062 512.707,466.531 508.79,475.71 C 500.626,494.82 495.074,544.678 499.303,552.534 C 502.977,559.358 563.866,568.016 581.977,555.422 C 587.041,551.898 577.996,491.819 574.451,490.9 z M 538.824,527.975 C 532.978,528.916 532.234,528.848 530.687,531.189 C 528.259,534.863 521.963,539.064 511.353,539.765 C 506.525,540.083 510.566,526.202 507.086,524.692 C 502.967,522.904 513.211,488.715 516.01,489.503 C 517.373,489.886 505.203,518.359 510.101,522.5 C 515.068,526.693 530.595,528.062 536.018,524.482 C 539.676,522.068 535.569,496.789 537.075,496.105 C 539.282,495.102 542.889,527.32 538.824,527.975 z "
   id="path2332"
   style="fill:#ffffff" />
					<path
   d="M 572.445,562.772 C 566.597,564.363 559.539,565.045 551.532,565.221 C 548.689,565.283 559.928,570.671 562.687,569.243 C 566.494,567.275 564.392,566.619 570.432,567.275 C 574.51,567.721 576.292,561.722 572.445,562.772 z "
   id="path2334"
   style="fill:#ffffff" />
				</g>
				<path
   d="M 550.572,489.021 C 566.579,489.985 585.477,487.971 585.131,487.622 C 579.687,482.186 563.868,478.17 554.771,476.859 C 547.614,475.826 547.091,488.813 550.572,489.021 z "
   id="path2336"
   style="fill:#ffffff" />
			</g>
		</g>
		<g
   id="g125_2_">
			<g
   id="g2339">
				<path
   d="M 634.781,556.634 C 631.353,559.142 627.175,560.145 623.414,560.145 C 619.986,560.145 616.893,559.393 614.888,558.055 C 613.383,557.052 612.798,555.715 612.798,554.627 C 612.798,552.955 614.052,551.534 615.557,551.534 C 615.808,551.534 616.058,551.617 616.309,551.617 C 617.063,551.867 618.902,552.285 620.908,552.285 C 623.416,552.285 626.174,551.7 627.846,549.778 C 630.605,546.602 631.691,541.002 631.691,535.819 C 631.691,533.312 631.441,530.887 631.023,528.881 C 629.936,524.115 627.763,521.275 623.919,521.275 C 622.665,521.275 621.328,521.525 619.74,522.111 C 616.896,523.197 614.305,523.699 611.966,523.699 C 604.612,523.699 600.264,518.767 600.264,511.495 C 600.264,509.656 600.515,507.65 601.1,505.56 C 605.532,489.511 622.498,482.239 628.684,482.239 C 628.768,482.239 628.851,482.239 628.935,482.239 C 631.444,482.322 632.363,483.242 632.363,484.496 C 632.363,486.169 630.608,488.259 629.102,488.927 C 621.246,492.689 617.401,499.71 617.401,504.892 C 617.401,507.901 618.738,510.325 621.33,511.078 C 622.166,511.328 623.002,511.412 623.754,511.412 C 627.934,511.412 630.775,508.068 631.944,504.892 C 633.366,501.047 634.537,497.954 637.713,497.871 C 637.797,497.871 637.88,497.871 637.964,497.871 C 641.307,497.871 642.393,500.296 643.731,505.394 C 645.737,512.75 646.573,519.437 646.573,525.372 C 646.565,541.755 640.381,552.621 634.781,556.634 z "
   id="path2341"
   style="fill:#ffffff" />
				<path
   d="M 684.685,516.177 C 680.505,522.279 673.652,525.872 667.131,525.872 C 663.954,525.872 660.861,524.953 658.105,523.114 C 653.59,519.938 651.417,514.673 651.417,509.071 C 651.417,504.474 652.922,499.626 655.764,495.53 C 659.945,489.511 667.048,486.001 673.737,486.001 C 677.164,486.001 680.424,486.836 683.182,488.76 C 687.444,491.769 689.368,496.532 689.368,501.8 C 689.366,506.647 687.778,511.746 684.685,516.177 z M 674.571,493.44 C 674.153,493.273 673.651,493.19 673.233,493.19 C 670.641,493.19 667.715,495.697 666.379,499.377 C 665.793,500.798 665.543,502.219 665.543,503.473 C 665.543,506.231 666.629,508.488 668.552,509.241 C 669.053,509.408 669.471,509.491 669.973,509.491 C 672.564,509.491 675.408,506.984 676.827,503.305 C 677.412,501.884 677.663,500.463 677.663,499.209 C 677.664,496.45 676.577,494.193 674.571,493.44 z "
   id="path2343"
   style="fill:#ffffff" />
				<path
   d="M 737.932,506.814 C 735.926,522.445 730.076,525.204 725.812,525.204 C 724.223,525.204 722.802,524.786 721.966,524.535 C 721.13,524.284 720.211,524.201 719.291,524.201 C 717.285,524.201 715.194,524.786 713.44,525.789 C 712.352,526.457 711.098,526.959 709.677,526.959 C 707.754,526.959 705.581,525.956 703.408,523.031 C 696.637,513.754 694.213,500.63 694.213,488.092 C 694.213,474.3 697.139,461.26 700.567,454.739 C 701.905,452.064 704.329,449.473 706.586,449.473 C 706.837,449.473 707.088,449.556 707.422,449.64 C 709.261,450.141 709.763,452.148 709.763,454.321 C 709.763,455.157 709.679,455.993 709.595,456.745 C 708.843,462.932 708.342,468.698 708.342,473.463 C 708.342,477.726 708.676,481.236 709.595,483.743 C 710.599,486.503 712.521,490.014 715.866,490.014 C 717.287,490.014 719.043,489.262 721.049,487.59 C 723.473,485.5 726.065,484.413 728.571,484.413 C 733.838,484.413 738.351,489.346 738.351,500.379 C 738.351,502.302 738.267,504.475 737.932,506.814 z M 718.874,497.787 C 718.791,497.787 718.707,497.704 718.624,497.704 C 716.283,497.704 714.026,501.216 713.692,505.645 C 713.608,506.146 713.608,506.564 713.608,507.066 C 713.608,511.078 715.196,514.254 717.453,514.505 C 717.537,514.505 717.62,514.505 717.704,514.505 C 720.045,514.505 722.302,511.077 722.636,506.564 C 722.72,506.146 722.72,505.645 722.72,505.227 C 722.72,501.215 721.131,497.954 718.874,497.787 z "
   id="path2345"
   style="fill:#ffffff" />
				<path
   d="M 776.469,516.177 C 772.289,522.279 765.435,525.872 758.915,525.872 C 755.738,525.872 752.645,524.953 749.888,523.114 C 745.374,519.938 743.2,514.673 743.2,509.071 C 743.2,504.474 744.705,499.626 747.547,495.53 C 751.728,489.511 758.831,486.001 765.519,486.001 C 768.947,486.001 772.207,486.836 774.964,488.76 C 779.228,491.769 781.151,496.532 781.151,501.8 C 781.149,506.647 779.562,511.746 776.469,516.177 z M 766.354,493.44 C 765.936,493.273 765.434,493.19 765.016,493.19 C 762.424,493.19 759.498,495.697 758.162,499.377 C 757.576,500.798 757.326,502.219 757.326,503.473 C 757.326,506.231 758.412,508.488 760.335,509.241 C 760.836,509.408 761.254,509.491 761.756,509.491 C 764.347,509.491 767.191,506.984 768.61,503.305 C 769.194,501.884 769.446,500.463 769.446,499.209 C 769.446,496.45 768.36,494.193 766.354,493.44 z "
   id="path2347"
   style="fill:#ffffff" />
			</g>
		</g>
		<g
   id="g135_2_">
			<g
   id="g2350">
				<path
   d="M 702.442,541.523 C 701.796,546.578 701.604,551.633 701.604,556.004 C 701.604,560.603 701.833,564.403 702.024,566.57 C 702.06,566.799 702.06,567.026 702.06,567.255 C 702.06,569.004 701.3,569.916 700.35,569.916 C 699.362,569.916 698.183,569.004 697.385,567.217 C 695.561,563.035 694.649,555.738 694.649,549.353 C 694.649,545.438 694.992,541.827 695.675,539.584 C 696.549,536.581 698.071,535.669 699.438,535.669 C 699.743,535.669 700.084,535.707 700.388,535.782 C 701.68,536.2 702.554,537.227 702.554,539.735 C 702.555,540.27 702.519,540.84 702.442,541.523 z "
   id="path2352"
   style="fill:#ffffff" />
				<path
   d="M 710.046,568.7 C 709.248,568.7 708.297,568.206 707.728,567.257 C 705.713,564.026 704.763,559.465 704.763,555.588 C 704.763,553.459 705.029,551.521 705.599,550.114 C 706.207,548.517 707.499,547.758 708.716,547.758 C 710.084,547.758 711.376,548.783 711.376,550.799 C 711.376,551.027 711.376,551.255 711.338,551.483 C 711.11,553.383 710.996,555.512 710.996,557.603 C 710.996,560.986 711.262,564.254 711.642,566.269 C 711.68,566.497 711.717,566.725 711.717,566.915 C 711.718,568.131 710.958,568.7 710.046,568.7 z M 712.326,542.095 C 711.718,543.463 710.272,544.299 708.981,544.299 C 708.6,544.299 708.258,544.223 707.917,544.07 C 707.005,543.69 706.587,542.816 706.587,541.79 C 706.587,541.183 706.739,540.498 707.043,539.813 C 707.651,538.407 708.905,537.532 710.084,537.532 C 710.427,537.532 710.769,537.608 711.072,537.761 C 712.059,538.179 712.668,539.242 712.668,540.459 C 712.668,540.991 712.554,541.563 712.326,542.095 z "
   id="path2354"
   style="fill:#ffffff" />
				<path
   d="M 737.033,567.788 C 736.083,567.788 734.903,567.257 733.841,566.154 C 731.408,563.569 729.241,559.388 727.037,559.388 C 726.961,559.388 726.885,559.388 726.808,559.388 C 723.007,559.845 723.199,564.253 722.513,566.268 C 722.133,567.371 721.259,568.549 720.118,568.549 C 719.356,568.549 718.483,568.055 717.571,566.8 C 715.709,564.328 714.835,560.413 714.835,557.03 C 714.835,555.434 715.024,553.951 715.367,552.811 C 715.899,551.177 716.888,550.569 717.913,550.569 C 719.092,550.569 720.308,551.405 720.916,552.547 C 721.448,553.496 722.171,554.257 723.159,554.257 C 723.805,554.257 724.565,553.952 725.477,553.231 C 726.54,552.395 727.756,552.015 728.897,552.015 C 730.76,552.015 732.432,553.003 733.231,554.714 C 734.294,556.993 736.348,561.745 738.057,564.901 C 738.362,565.509 738.514,566.004 738.514,566.422 C 738.515,567.295 737.907,567.788 737.033,567.788 z "
   id="path2356"
   style="fill:#ffffff" />
				<path
   d="M 760.908,564.443 C 760.641,566.799 759.92,567.713 758.628,567.713 C 757.905,567.713 757.03,567.408 755.929,566.952 C 754.943,566.534 754.105,566.345 753.345,566.345 C 751.748,566.345 750.494,567.143 749.012,568.322 C 748.175,568.968 747.113,569.348 746.047,569.348 C 744.566,569.348 743.006,568.624 741.903,566.839 C 741.104,565.508 740.725,563.646 740.725,561.556 C 740.725,558.743 741.447,555.588 742.891,553.004 C 743.614,551.787 744.372,551.217 745.057,551.217 C 746.083,551.217 746.843,552.433 746.843,554.6 C 746.843,554.714 746.843,554.789 746.843,554.904 C 746.843,555.284 746.843,555.664 746.843,556.082 C 746.843,559.541 747.413,563.038 749.998,563.152 C 750.074,563.152 750.148,563.152 750.187,563.152 C 754.064,563.152 754.14,558.591 755.469,553.916 C 756.039,551.788 756.99,551.027 757.865,551.027 C 758.852,551.027 759.764,551.977 760.182,553.079 C 760.789,554.753 761.132,557.83 761.132,560.758 C 761.137,562.05 761.06,563.342 760.908,564.443 z "
   id="path2358"
   style="fill:#ffffff" />
				<path
   d="M 780.297,567.408 C 779.879,567.902 779.423,568.094 778.929,568.094 C 777.75,568.094 776.344,566.99 774.747,566.156 C 773.835,565.624 772.77,565.206 771.631,565.206 C 770.3,565.206 768.778,565.814 767.185,567.524 C 766.31,568.398 765.398,568.816 764.675,568.816 C 763.877,568.816 763.307,568.322 763.307,567.409 C 763.307,566.725 763.611,565.851 764.41,564.786 C 766.197,562.391 767.185,560.796 767.185,559.275 C 767.185,558.172 766.691,557.07 765.664,555.702 C 764.866,554.639 764.523,553.611 764.523,552.813 C 764.523,551.825 765.054,551.179 766.044,551.179 C 766.88,551.179 768.022,551.635 769.427,552.813 C 770.531,553.726 771.365,554.486 772.43,554.486 C 773.572,554.486 774.94,553.688 777.031,551.445 C 777.637,550.799 778.436,550.457 779.121,550.457 C 779.92,550.457 780.565,550.913 780.565,551.863 C 780.565,552.357 780.414,552.967 779.995,553.726 C 778.665,556.272 777.449,558.287 777.449,560.074 C 777.449,560.759 777.637,561.404 778.018,562.052 C 779.577,564.369 780.565,565.699 780.565,566.651 C 780.562,566.914 780.485,567.181 780.297,567.408 z "
   id="path2360"
   style="fill:#ffffff" />
			</g>
		</g>
	</g>
</g>
</svg>